<svg id="Layer_1" data-name="Layer 1" xmlns="http://www.w3.org/2000/svg" xmlns:xlink="http://www.w3.org/1999/xlink" viewBox="0 0 551.02 758.14"><defs><style>.cls-1{fill:url(#linear-gradient);}.cls-2{fill:url(#linear-gradient-2);}.cls-3{fill:url(#linear-gradient-3);}</style><linearGradient id="linear-gradient" x1="266.58" y1="-5.37" x2="978.95" y2="1146.63" gradientUnits="userSpaceOnUse"><stop offset="0" stop-color="#d63e96"/><stop offset="1" stop-color="#ef3835"/></linearGradient><linearGradient id="linear-gradient-2" x1="-236.92" y1="46.78" x2="475.45" y2="1198.78" xlink:href="#linear-gradient"/><linearGradient id="linear-gradient-3" x1="-19.64" y1="-87.57" x2="692.72" y2="1064.43" xlink:href="#linear-gradient"/></defs><path class="cls-1" d="M775.08,233.28c-.1-2.85-.28-6.7-.46-8.54s-.6-4.92-.88-6.85-.82-4.92-1.19-6.62-1-4.45-1.38-6.11-1.19-4.45-1.7-6.25-1.47-4.77-2.16-6.7-1.79-5-2.53-6.94-2-4.92-2.8-6.76-2.25-4.91-3.22-6.93-2.61-5.1-3.58-6.9-2.62-4.54-3.68-6.15-2.61-4.05-3.58-5.38-2.76-3.72-4-5.28a94.43,94.43,0,0,0-6.43-7c-2.3-2.29-5-4.91-6.2-5.79s-2.85-2.2-3.86-2.89a45.73,45.73,0,0,0-3.95-2.57c-1.15-.74-3.22-1.84-4.51-2.49s-3-1.47-3.72-1.79-2.62-1-4.09-1.47-3.72-1.19-4.91-1.47-3.45-.73-4.92-1-4.18-.55-6.07-.69a48,48,0,0,0-5.78-.09c-1.29,0-3.4.23-4.69.36s-3.68.46-5.24.74-4.09.83-5.47,1.15-3.86,1.1-5.46,1.65-4.09,1.43-5.56,2-4.32,1.89-6.3,2.85-5.19,2.67-7.08,3.72-5,3.08-7.07,4.41-4.78,3.27-6.2,4.28-4,3-5.66,4.32-4,3.26-5.14,4.22-3.45,3-5.24,4.6-5.19,4.87-7.67,7.26-5.93,6-7.72,7.86-4.46,4.77-6,6.52-4,4.46-5.47,6.2-3.63,4.23-4.78,5.65-3.31,4-4.73,5.79-3.63,4.55-4.92,6.21-4.22,5.46-6.52,8.54-6.11,8.27-8.46,11.54-6,8.45-8,11.44-4.87,7.21-6.29,9.32-4.27,6.48-6.34,9.65-5.84,9.1-8.32,13.14-6.16,9.93-8,13.05S521.77,286,519.47,290s-5.65,9.74-7.4,12.82-4.5,8-6.06,10.94-3.68,6.66-4.6,8.36a16.74,16.74,0,0,1-1.84,3.08c0-.05-1-1.66-2-3.59s-3.22-5.83-4.78-8.73-4.37-7.76-6.11-10.88-4.87-8.51-6.89-12-5.38-9.14-7.49-12.59-5.88-9.65-8.41-13.74-6.39-10.1-8.55-13.46-4.91-7.53-6.11-9.28-3.81-5.7-5.88-8.68-5.65-8.14-8-11.44-6.11-8.46-8.32-11.45-5.74-7.53-7.72-10.06-4.87-6.15-6.43-8-4.23-5.15-6-7.22-4.5-5.19-6.11-6.93-5-5.47-7.63-8.23-6.89-7-9.42-9.46-5.93-5.52-7.44-6.85-4.09-3.49-5.7-4.78-4.32-3.44-6.11-4.78-4.73-3.44-6.62-4.73-4.5-2.94-5.88-3.77-3.9-2.3-5.65-3.21-4.69-2.44-6.52-3.22-4.65-2-6.3-2.62-4.41-1.52-6.2-2-4.51-1.2-6-1.52-3.91-.69-5.24-.87-4.59-.37-7.26-.41-5.19,0-5.61,0l-2.84.32a42.14,42.14,0,0,0-4.74.74c-1.42.27-3.58.78-4.87,1.15s-3.31,1-4.59,1.51-3.45,1.43-4.92,2.12-3.77,1.93-5.14,2.75-3.4,2.16-4.55,2.94-3,2.26-4.28,3.27-3.72,3.35-5.56,5.19-4.27,4.41-5.37,5.74-2.8,3.49-3.72,4.74-2.53,3.58-3.63,5.23-2.85,4.55-3.95,6.44-3.08,5.6-4.42,8.31-3.12,6.62-4,8.69-2.39,5.79-3.31,8.31-2.16,6-2.71,7.77-1.33,4.59-1.84,6.29-1.19,4.69-1.61,6.53-1,5.05-1.38,7.07-.73,5.06-.92,6.67-.46,4.82-.59,7.07-.19,5.93-.14,8.46.32,5.88.5,7.72.51,4.5.74,5.92.64,3.77,1,5.15.88,3.72,1.29,5.19,1.24,4.14,1.84,5.88,1.56,4.37,2.11,5.75,1.75,3.95,2.58,5.56,2.11,4.18,3,5.65,2.21,3.76,3.13,5.1,2.39,3.53,3.35,4.82,2.67,3.49,3.81,4.87,3.22,3.77,4.74,5.33,4,4.18,5.74,5.75,4.14,3.67,5.42,4.77,4.05,3.22,6.11,4.78,5.33,3.86,7.26,5.19,5,3.27,6.85,4.37,5.15,3.08,7.4,4.32,7.58,4.09,11.85,6.2,10.48,5.1,13.69,6.53,7.95,3.44,10.48,4.5,5.56,2.25,6.75,2.71l2.12.83-45.9,0L244,355V578.4H467.32V385.83h77V578.4H767.68V355l-52.38,0H663l6.07-2.44c3.31-1.37,8.41-3.49,11.3-4.73s7-3,9-4,6.39-3,9.61-4.64,7.53-3.81,9.51-4.91,5.33-3,7.4-4.23,5.42-3.36,7.48-4.73,5.43-3.77,7.49-5.29,5-3.86,6.53-5.14,4.92-4.46,7.49-7,5.74-5.88,6.94-7.36,2.84-3.58,3.67-4.68,2.3-3.26,3.31-4.73,2.39-3.82,3.17-5.15,2.21-4,3.12-5.88,2.12-4.5,2.62-5.79,1.43-3.68,2-5.24,1.29-4,1.7-5.47,1-3.63,1.29-4.91.69-3.45,1-4.83.55-3.67.74-5.14.41-4.32.55-6.39C775.12,240,775.17,236.55,775.08,233.28ZM447.84,330.83c-3.49-.32-8.59-.83-11.35-1.15s-7.22-.83-9.93-1.19-6.93-.92-9.42-1.29-7.35-1.1-10.84-1.7-8.87-1.52-11.95-2.11-7.44-1.47-9.64-1.93-5.2-1.15-6.71-1.52-5.24-1.24-8.23-2-7.49-1.93-10-2.62-6.15-1.84-8.22-2.48-5.42-1.75-7.49-2.44-5.1-1.79-6.76-2.39l-6.84-2.66c-2.12-.87-5.65-2.44-7.91-3.45s-5.79-2.75-7.9-3.81-5.28-2.85-7-3.86-4.46-2.71-6-3.72-4.22-2.9-6-4.23-4.36-3.44-5.88-4.73-3.86-3.63-5.33-5.15-3.49-3.77-4.5-5-2.62-3.53-3.68-5.1a65.92,65.92,0,0,1-3.49-6.11c-.83-1.74-1.79-4-2.11-4.82s-.88-2.53-1.2-3.63-.87-3.17-1.19-4.6-.64-3.86-.83-5.37-.32-4.55-.32-6.76.14-5.42.32-7.16.46-4,.64-5.1.65-3.27,1-4.92,1.14-4.78,1.79-6.94,1.79-5.65,2.57-7.72,2-5.1,2.67-6.71,1.93-4.36,2.75-6,2.12-4.22,3-5.74,2.25-3.9,3.12-5.19,2.39-3.4,3.31-4.6,2.57-2.94,3.54-3.9a32.82,32.82,0,0,1,3.45-3,31.48,31.48,0,0,1,3.58-2.26,23.18,23.18,0,0,1,3.49-1.47,21,21,0,0,1,2.71-.64,19.62,19.62,0,0,1,3.54-.09v-.05a38.79,38.79,0,0,1,4.73.55c1.2.28,3.31.83,4.69,1.29a51.38,51.38,0,0,1,4.87,1.89c1.33.59,3.54,1.74,4.92,2.52s3.72,2.21,5.23,3.22,4,2.66,5.38,3.77,3.63,2.8,5,3.86l5.24,4.5c1.56,1.42,5.47,5.19,8.68,8.36s7.26,7.44,9.1,9.47,4.74,5.33,6.48,7.35,4.5,5.33,6.11,7.26,4.37,5.37,6.11,7.58,4.83,6.25,6.85,8.91,5.05,6.71,6.75,9.05,4.69,6.57,6.67,9.38,5.51,8,7.9,11.53,6.06,9.1,8.13,12.27,5.56,8.73,7.77,12.31,5.83,9.42,7.95,13,5.05,8.45,6.52,11,3.91,6.85,5.42,9.51,3.36,5.93,4.05,7.17a13.55,13.55,0,0,1,1.14,2.25C454.18,331.43,451.28,331.15,447.84,330.83Zm283.82-87.16c-.23,1.42-.79,4-1.2,5.79s-1.19,4.18-1.61,5.37-1.51,3.59-2.34,5.33-2.21,4.18-3,5.38-2,3-2.71,3.95-2.16,2.71-3.12,3.81-2.76,3.08-4.05,4.37-3.35,3.21-4.68,4.36-3.63,3-5.15,4.14-4.32,3.08-6.2,4.32-4.69,3-6.25,3.86-4.73,2.62-7,3.77-5.52,2.75-7.22,3.53-4.59,2.07-6.43,2.85-5.42,2.16-8,3.17-6.75,2.44-9.19,3.26-6.29,2.07-8.45,2.72-6.43,1.83-9.42,2.66-7.31,1.93-9.51,2.48-6.2,1.43-8.78,2-6.93,1.47-9.65,2l-9.09,1.7c-2.3.41-5.65,1-7.49,1.28s-4.87.78-6.85,1.06-5.65.83-8.32,1.19-6.89.88-9.37,1.2-7.44.82-10.93,1.15-7.36.69-8.55.78-2.21.09-2.11-.05,1.65-2.94,3.53-6.29,4.65-8.18,6.16-10.8,4.64-7.9,7-11.86,6.34-10.38,8.77-14.33,5.88-9.33,7.63-12,5-7.58,7.21-10.94,5.24-7.76,6.62-9.74,3.58-5.1,4.87-6.89,3.77-5.24,5.51-7.63,4.55-6.16,6.3-8.45,5.42-6.94,8.13-10.34,6.75-8.32,8.91-10.85,5.47-6.24,7.31-8.27,5.19-5.56,7.4-7.81,5.7-5.65,7.81-7.62,5.15-4.6,6.66-5.89,3.86-3.12,5.24-4.18,3.49-2.57,4.82-3.49,3.27-2.16,4.37-2.85,3.4-1.93,5.15-2.75a51.7,51.7,0,0,1,5.23-2.35,42.47,42.47,0,0,1,4.51-1.42c1.33-.32,3.12-.69,4-.78a24.13,24.13,0,0,1,3.21-.23h0a20.54,20.54,0,0,1,3,.18c.74.14,2,.41,2.76.64a33.16,33.16,0,0,1,3.08,1.29,34.85,34.85,0,0,1,3.44,2.07,45.93,45.93,0,0,1,3.95,3.49c1.24,1.24,3,3.22,3.91,4.37s2.25,3.12,3,4.27,2,3.12,2.62,4.27,1.89,3.45,2.67,5,2,4.14,2.66,5.65,1.7,4,2.3,5.47,1.7,4.55,2.48,6.8,1.75,5.56,2.21,7.35,1.1,4.55,1.38,6,.69,3.91.92,5.42a61.34,61.34,0,0,1,.36,9.1A55.59,55.59,0,0,1,731.66,243.67Z" transform="translate(-224.1 -120.62)"/><polygon class="cls-2" points="19.87 527.07 19.87 758.14 243.17 758.14 243.17 527.07 131.52 527.07 19.87 527.07 19.87 527.07"/><polygon class="cls-3" points="320.23 527.07 320.23 758.14 543.53 758.14 543.53 527.07 431.88 527.07 320.23 527.07"/></svg>