<?xml version="1.0" encoding="utf-8"?>
<!-- Generator: Adobe Illustrator 16.0.0, SVG Export Plug-In . SVG Version: 6.00 Build 0)  -->
<!DOCTYPE svg PUBLIC "-//W3C//DTD SVG 1.1//EN" "http://www.w3.org/Graphics/SVG/1.1/DTD/svg11.dtd">
<svg version="1.1"
	 id="svg4" xmlns:dc="http://purl.org/dc/elements/1.1/" xmlns:cc="http://creativecommons.org/ns#" xmlns:rdf="http://www.w3.org/1999/02/22-rdf-syntax-ns#" xmlns:svg="http://www.w3.org/2000/svg"
	 xmlns="http://www.w3.org/2000/svg" xmlns:xlink="http://www.w3.org/1999/xlink" x="0px" y="0px" width="180px" height="180px"
	 viewBox="190.166 258.5 180 180" enable-background="new 190.166 258.5 180 180" xml:space="preserve">
<path id="path2" fill="#FFF" d="M321.703,259.874c-0.297,0.01-0.786,0.054-1.085,0.086c-0.309,0.022-0.851,0.107-1.213,0.172
	c-0.374,0.064-0.948,0.193-1.269,0.268c-0.327,0.085-0.893,0.257-1.265,0.385c-0.373,0.117-0.948,0.331-1.289,0.47
	c-0.339,0.139-1,0.438-1.457,0.662c-0.468,0.224-1.203,0.619-1.639,0.864c-0.436,0.256-1.171,0.716-1.638,1.024
	c-0.458,0.299-1.105,0.758-1.437,0.993c-0.33,0.245-0.914,0.692-1.309,1.001c-0.393,0.321-0.925,0.757-1.19,0.981
	c-0.255,0.224-0.797,0.704-1.213,1.066c-0.405,0.374-1.202,1.131-1.776,1.685c-0.563,0.565-1.373,1.387-1.787,1.823
	c-0.404,0.438-1.032,1.109-1.393,1.513c-0.351,0.395-0.914,1.035-1.265,1.44c-0.34,0.394-0.841,0.98-1.106,1.31
	c-0.276,0.331-0.765,0.928-1.094,1.344c-0.33,0.405-0.839,1.054-1.138,1.438c-0.297,0.384-0.978,1.269-1.509,1.982
	c-0.531,0.704-1.414,1.918-1.956,2.675c-0.542,0.767-1.382,1.96-1.86,2.653c-0.478,0.704-1.127,1.673-1.455,2.163
	c-0.33,0.49-0.99,1.502-1.468,2.238c-0.478,0.734-1.349,2.109-1.923,3.047c-0.583,0.938-1.424,2.301-1.859,3.026
	c-0.436,0.724-1.222,2.056-1.754,2.972c-0.531,0.916-1.305,2.258-1.709,2.973c-0.403,0.724-1.042,1.864-1.403,2.535
	c-0.371,0.671-0.85,1.544-1.062,1.938c-0.212,0.405-0.403,0.725-0.425,0.714c-0.011-0.01-0.224-0.382-0.459-0.829
	c-0.246-0.437-0.747-1.352-1.11-2.022c-0.374-0.66-1.014-1.797-1.419-2.521c-0.406-0.723-1.132-1.968-1.601-2.776
	c-0.47-0.798-1.248-2.117-1.739-2.916c-0.48-0.808-1.366-2.235-1.952-3.181c-0.586-0.936-1.483-2.34-1.985-3.117
	c-0.511-0.777-1.141-1.745-1.418-2.149c-0.267-0.415-0.886-1.319-1.365-2.01c-0.48-0.692-1.313-1.883-1.866-2.649
	c-0.545-0.766-1.419-1.957-1.931-2.649c-0.522-0.691-1.333-1.744-1.792-2.329c-0.458-0.585-1.13-1.425-1.493-1.851
	c-0.352-0.437-0.981-1.191-1.386-1.67c-0.416-0.467-1.044-1.202-1.418-1.605c-0.363-0.404-1.163-1.266-1.77-1.904
	c-0.607-0.638-1.599-1.627-2.186-2.19c-0.596-0.564-1.375-1.276-1.727-1.584c-0.362-0.309-0.948-0.808-1.321-1.106
	c-0.363-0.309-1.002-0.797-1.417-1.105c-0.406-0.308-1.098-0.797-1.535-1.095c-0.437-0.287-1.044-0.68-1.364-0.871
	c-0.31-0.192-0.906-0.531-1.31-0.744c-0.417-0.223-1.087-0.563-1.513-0.743c-0.426-0.191-1.077-0.468-1.46-0.605
	c-0.373-0.138-1.022-0.351-1.438-0.466c-0.415-0.117-1.043-0.275-1.395-0.35c-0.352-0.064-0.905-0.159-1.213-0.201
	c-0.32-0.042-1.065-0.084-1.683-0.094c-0.617-0.009-1.203,0.001-1.299,0.012c-0.084,0.012-0.394,0.044-0.66,0.076
	c-0.277,0.022-0.767,0.097-1.096,0.172c-0.331,0.064-0.83,0.182-1.128,0.268c-0.287,0.085-0.766,0.245-1.064,0.353
	c-0.287,0.117-0.798,0.331-1.138,0.491c-0.33,0.16-0.873,0.449-1.192,0.64c-0.319,0.193-0.788,0.502-1.054,0.684
	c-0.255,0.181-0.702,0.522-0.989,0.757c-0.276,0.234-0.862,0.778-1.287,1.205c-0.426,0.416-0.989,1.023-1.244,1.333
	c-0.256,0.319-0.649,0.81-0.862,1.098c-0.201,0.287-0.584,0.831-0.839,1.215c-0.256,0.384-0.659,1.055-0.914,1.491
	c-0.255,0.437-0.711,1.3-1.02,1.929c-0.308,0.628-0.723,1.534-0.924,2.013c-0.202,0.469-0.552,1.343-0.765,1.929
	c-0.223,0.586-0.499,1.395-0.626,1.8c-0.127,0.404-0.308,1.064-0.423,1.459c-0.106,0.405-0.276,1.087-0.371,1.512
	c-0.095,0.437-0.233,1.172-0.317,1.64c-0.074,0.47-0.169,1.172-0.211,1.544c-0.042,0.384-0.104,1.118-0.136,1.64
	c-0.032,0.543-0.041,1.374-0.03,1.959c0.022,0.564,0.076,1.363,0.12,1.789c0.043,0.416,0.119,1.043,0.172,1.374
	c0.053,0.341,0.149,0.873,0.225,1.192c0.064,0.319,0.203,0.863,0.3,1.203c0.096,0.341,0.288,0.958,0.427,1.362
	c0.139,0.405,0.363,1.011,0.492,1.331c0.138,0.33,0.405,0.916,0.598,1.288c0.181,0.383,0.491,0.968,0.693,1.309
	c0.193,0.339,0.512,0.872,0.726,1.18c0.202,0.309,0.554,0.82,0.778,1.118c0.224,0.308,0.619,0.808,0.885,1.127
	c0.256,0.309,0.746,0.873,1.098,1.234c0.341,0.372,0.938,0.968,1.333,1.33c0.395,0.351,0.958,0.85,1.257,1.106
	c0.299,0.244,0.938,0.744,1.417,1.105c0.48,0.351,1.236,0.893,1.684,1.201c0.447,0.298,1.161,0.754,1.587,1.01
	c0.426,0.266,1.193,0.712,1.715,0.998c0.522,0.298,1.758,0.946,2.749,1.435c1.002,0.499,2.429,1.178,3.175,1.508
	c0.756,0.329,1.842,0.796,2.428,1.04c0.586,0.244,1.289,0.52,1.566,0.626l0.49,0.191l-10.636,0.023l-10.647,0.034l0.063,51.754
	L270.357,366l-0.055-44.621l17.843-0.022l0.055,44.621l51.755-0.063l-0.063-51.754l-12.138,0.005l-12.127,0.015l1.404-0.565
	c0.768-0.321,1.948-0.812,2.619-1.1c0.681-0.289,1.617-0.705,2.096-0.929c0.469-0.214,1.479-0.694,2.223-1.078
	c0.757-0.374,1.746-0.886,2.203-1.142c0.469-0.256,1.234-0.694,1.713-0.981c0.479-0.289,1.257-0.779,1.734-1.099
	c0.479-0.32,1.255-0.875,1.735-1.226c0.478-0.364,1.159-0.896,1.51-1.195c0.352-0.299,1.137-1.035,1.732-1.631
	c0.607-0.597,1.33-1.365,1.605-1.705c0.276-0.341,0.66-0.832,0.852-1.087c0.19-0.266,0.531-0.757,0.766-1.098
	c0.223-0.34,0.552-0.884,0.732-1.192c0.19-0.32,0.511-0.927,0.722-1.364c0.213-0.437,0.49-1.045,0.605-1.343
	c0.127-0.308,0.33-0.852,0.457-1.214c0.127-0.372,0.296-0.937,0.391-1.267c0.096-0.331,0.224-0.842,0.299-1.14
	c0.063-0.298,0.159-0.798,0.222-1.118c0.053-0.32,0.128-0.853,0.168-1.193c0.044-0.341,0.095-1.001,0.127-1.479
	c0.042-0.543,0.052-1.331,0.029-2.087c-0.021-0.659-0.066-1.555-0.109-1.98c-0.043-0.426-0.14-1.139-0.203-1.586
	c-0.075-0.447-0.194-1.14-0.28-1.534c-0.086-0.393-0.224-1.032-0.32-1.415c-0.096-0.383-0.277-1.033-0.396-1.448
	c-0.117-0.404-0.341-1.107-0.501-1.554c-0.15-0.447-0.418-1.16-0.588-1.607c-0.172-0.437-0.47-1.139-0.651-1.565
	c-0.182-0.415-0.523-1.138-0.748-1.606c-0.224-0.468-0.607-1.181-0.832-1.596c-0.235-0.415-0.608-1.054-0.854-1.426
	c-0.233-0.372-0.606-0.936-0.831-1.244c-0.223-0.319-0.64-0.863-0.927-1.224c-0.29-0.361-0.95-1.084-1.493-1.616
	c-0.533-0.532-1.173-1.138-1.438-1.34c-0.256-0.213-0.662-0.511-0.896-0.67c-0.225-0.17-0.64-0.436-0.918-0.595
	c-0.266-0.17-0.744-0.425-1.042-0.573c-0.299-0.16-0.693-0.341-0.863-0.414c-0.182-0.075-0.607-0.223-0.948-0.34
	c-0.341-0.117-0.864-0.276-1.141-0.34c-0.287-0.073-0.799-0.169-1.14-0.222c-0.339-0.063-0.967-0.127-1.403-0.158
	C322.609,259.862,322.003,259.852,321.703,259.874z M322.142,269.774c0.203,0,0.511,0.01,0.692,0.042
	c0.17,0.032,0.468,0.095,0.64,0.149c0.181,0.063,0.501,0.191,0.713,0.297c0.225,0.106,0.576,0.33,0.8,0.479
	c0.214,0.159,0.628,0.521,0.916,0.807c0.288,0.288,0.692,0.745,0.907,1.011c0.201,0.276,0.522,0.723,0.693,0.989
	c0.181,0.278,0.458,0.724,0.606,0.99c0.161,0.276,0.438,0.798,0.619,1.16c0.193,0.372,0.471,0.958,0.618,1.309
	c0.161,0.351,0.397,0.916,0.535,1.266c0.139,0.352,0.396,1.054,0.577,1.576c0.172,0.51,0.406,1.288,0.514,1.703
	c0.107,0.426,0.257,1.054,0.32,1.394c0.064,0.34,0.161,0.905,0.215,1.256c0.074,0.511,0.087,0.958,0.088,2.108
	c0.002,1.182-0.01,1.576-0.082,2.055c-0.054,0.33-0.18,0.938-0.275,1.342c-0.107,0.415-0.277,0.969-0.372,1.246
	c-0.106,0.266-0.351,0.831-0.542,1.236c-0.201,0.405-0.51,0.969-0.69,1.247c-0.181,0.276-0.456,0.692-0.627,0.916
	c-0.181,0.235-0.498,0.63-0.723,0.885c-0.222,0.267-0.638,0.714-0.935,1.013c-0.299,0.288-0.777,0.747-1.086,1.013
	c-0.298,0.256-0.839,0.693-1.19,0.96c-0.352,0.267-1,0.715-1.437,1.002c-0.436,0.289-1.086,0.694-1.448,0.896
	c-0.36,0.214-1.095,0.609-1.616,0.876c-0.521,0.277-1.276,0.64-1.671,0.821c-0.393,0.193-1.064,0.48-1.49,0.662
	c-0.413,0.171-1.255,0.502-1.85,0.737c-0.597,0.225-1.565,0.566-2.129,0.758c-0.576,0.192-1.458,0.481-1.96,0.631
	c-0.509,0.15-1.488,0.428-2.18,0.62c-0.703,0.192-1.693,0.449-2.204,0.578c-0.521,0.129-1.437,0.332-2.033,0.472
	c-0.607,0.127-1.607,0.342-2.235,0.471c-0.627,0.118-1.576,0.3-2.108,0.396c-0.532,0.097-1.31,0.236-1.734,0.301
	c-0.416,0.064-1.129,0.182-1.586,0.246c-0.447,0.065-1.31,0.194-1.928,0.28c-0.617,0.085-1.596,0.204-2.17,0.279
	c-0.586,0.064-1.725,0.193-2.534,0.269c-0.809,0.086-1.703,0.162-1.98,0.183c-0.31,0.021-0.511,0.022-0.49-0.009
	c0.01-0.021,0.383-0.683,0.817-1.459c0.436-0.778,1.075-1.897,1.425-2.505c0.339-0.596,1.073-1.832,1.614-2.749
	c0.552-0.916,1.465-2.408,2.03-3.324c0.573-0.917,1.359-2.163,1.764-2.781c0.392-0.607,1.148-1.758,1.667-2.536
	c0.521-0.778,1.211-1.801,1.531-2.259c0.318-0.458,0.829-1.183,1.125-1.598c0.309-0.427,0.872-1.215,1.276-1.77
	c0.393-0.543,1.053-1.427,1.456-1.96c0.404-0.533,1.254-1.609,1.883-2.398c0.638-0.799,1.562-1.929,2.062-2.515
	c0.498-0.586,1.265-1.449,1.691-1.918c0.436-0.48,1.199-1.29,1.71-1.813c0.501-0.522,1.319-1.311,1.81-1.77
	c0.499-0.458,1.19-1.066,1.542-1.364c0.351-0.288,0.893-0.725,1.212-0.97c0.309-0.235,0.81-0.598,1.116-0.811
	c0.299-0.203,0.757-0.502,1.012-0.661c0.256-0.15,0.788-0.448,1.191-0.641c0.394-0.203,0.937-0.449,1.213-0.545
	c0.267-0.106,0.745-0.256,1.044-0.331c0.308-0.075,0.723-0.161,0.914-0.183C321.599,269.797,321.929,269.774,322.142,269.774
	L322.142,269.774z M233.454,269.894c0.32,0.01,0.81,0.073,1.097,0.126c0.277,0.064,0.767,0.191,1.087,0.297
	c0.309,0.095,0.819,0.297,1.129,0.436c0.309,0.138,0.82,0.403,1.14,0.583c0.32,0.181,0.863,0.511,1.215,0.744
	s0.917,0.617,1.247,0.872c0.331,0.244,0.842,0.648,1.151,0.893c0.298,0.255,0.841,0.723,1.214,1.042
	c0.363,0.33,1.269,1.202,2.015,1.936c0.735,0.734,1.684,1.723,2.11,2.191c0.427,0.467,1.099,1.232,1.504,1.701
	c0.417,0.479,1.045,1.233,1.418,1.68c0.374,0.447,1.013,1.245,1.418,1.755c0.406,0.521,1.12,1.447,1.59,2.064
	c0.468,0.606,1.173,1.553,1.567,2.095c0.395,0.553,1.087,1.521,1.546,2.17c0.448,0.639,1.28,1.841,1.834,2.669
	c0.555,0.831,1.408,2.107,1.889,2.841c0.469,0.734,1.291,2.021,1.802,2.852c0.523,0.83,1.355,2.181,1.846,3
	c0.491,0.809,1.173,1.958,1.515,2.543c0.341,0.585,0.907,1.585,1.259,2.203c0.362,0.627,0.779,1.373,0.939,1.659
	c0.161,0.277,0.277,0.511,0.267,0.521c-0.01,0.011-0.681-0.052-1.479-0.126c-0.809-0.074-1.992-0.189-2.63-0.263
	c-0.64-0.064-1.672-0.189-2.3-0.274c-0.629-0.074-1.608-0.211-2.183-0.296c-0.575-0.074-1.705-0.253-2.514-0.391
	c-0.809-0.127-2.055-0.349-2.768-0.486c-0.725-0.137-1.726-0.338-2.237-0.444c-0.5-0.117-1.203-0.265-1.555-0.35
	c-0.352-0.084-1.214-0.286-1.907-0.466c-0.703-0.169-1.736-0.445-2.311-0.604c-0.576-0.169-1.427-0.424-1.907-0.572
	c-0.479-0.149-1.257-0.403-1.736-0.563c-0.479-0.159-1.183-0.413-1.565-0.551c-0.384-0.149-1.097-0.425-1.587-0.615
	c-0.49-0.202-1.311-0.563-1.832-0.797c-0.522-0.234-1.343-0.638-1.833-0.881c-0.49-0.255-1.225-0.659-1.629-0.893
	c-0.416-0.245-1.034-0.628-1.396-0.861c-0.352-0.223-0.98-0.669-1.396-0.978c-0.405-0.308-1.013-0.797-1.364-1.095
	c-0.33-0.297-0.896-0.84-1.237-1.19c-0.352-0.351-0.81-0.872-1.044-1.16c-0.224-0.287-0.608-0.818-0.854-1.18
	c-0.245-0.373-0.607-1-0.81-1.415c-0.192-0.404-0.416-0.916-0.491-1.117c-0.075-0.203-0.203-0.586-0.278-0.841
	c-0.085-0.256-0.204-0.734-0.278-1.064c-0.065-0.331-0.151-0.895-0.194-1.246c-0.043-0.351-0.075-1.054-0.076-1.565
	c0-0.511,0.03-1.256,0.072-1.661s0.106-0.937,0.148-1.182c0.042-0.245,0.148-0.756,0.233-1.139c0.074-0.383,0.265-1.107,0.413-1.609
	c0.149-0.51,0.415-1.31,0.595-1.789c0.18-0.48,0.456-1.183,0.616-1.556c0.17-0.383,0.446-1.012,0.637-1.396
	c0.18-0.383,0.489-0.98,0.691-1.332c0.201-0.362,0.521-0.905,0.722-1.204c0.202-0.309,0.552-0.788,0.765-1.066
	c0.224-0.276,0.597-0.682,0.819-0.905c0.223-0.235,0.585-0.543,0.798-0.704c0.213-0.159,0.585-0.395,0.829-0.523
	c0.245-0.128,0.617-0.288,0.81-0.341c0.202-0.064,0.479-0.128,0.628-0.151c0.138-0.031,0.51-0.032,0.819-0.021V269.894
	L233.454,269.894z M218.622,382.119l0.066,53.542l51.743-0.063l-0.066-53.542l-25.872,0.032L218.622,382.119L218.622,382.119z
	 M288.22,382.034l0.066,53.542l51.745-0.063l-0.065-53.542l-25.873,0.032L288.22,382.034z M229.092,481.952
	c-13.812,0-25.012,10.788-25.012,24.115c0,13.328,11.2,24.115,25.012,24.115c13.806,0,25.006-10.787,25.006-24.115
	C254.098,492.74,242.898,481.952,229.092,481.952z M256.477,482.502c-0.203,0-0.347,0.138-0.347,0.341
	c0,0.209,0.144,0.347,0.347,0.347c1.99,0,4.399,1.649,5.086,3.64l14.703,43.354h4.876l14.9-43.677
	c0.824-1.847,3.071-3.316,4.954-3.316c0.209,0,0.347-0.138,0.347-0.347c0-0.203-0.138-0.341-0.347-0.341h-8.589
	c-0.203,0-0.34,0.138-0.34,0.341c0,0.209,0.137,0.347,0.34,0.347c1.722,0,2.612,1.237,2.409,2.887l-12.575,36.959l-12.437-36.206
	c-0.615-1.99,0.138-3.64,2.134-3.64c0.203,0,0.406-0.138,0.406-0.347c0-0.203-0.203-0.341-0.406-0.341H256.477L256.477,482.502z
	 M308.08,482.502v8.313c0,0.203,0.138,0.341,0.347,0.341c0.203,0,0.34-0.138,0.34-0.341c0-3.849,3.162-6.938,7.012-6.938h7.004
	v41.43c0,1.99-1.649,3.64-3.568,3.64c-0.209,0-0.418,0.137-0.418,0.341c0,0.209,0.209,0.346,0.418,0.346h14.493
	c0.21,0,0.347-0.137,0.347-0.346c0-0.204-0.137-0.341-0.347-0.341c-1.99,0-3.64-1.649-3.64-3.64v-41.43h7.076
	c3.85,0,6.939,3.09,6.939,6.938c0,0.203,0.138,0.341,0.341,0.341c0.209,0,0.347-0.138,0.347-0.341v-8.313H308.08z M229.092,483.602
	c9.407,0,17.033,10.029,17.033,22.466c0,12.432-7.626,22.466-17.033,22.466c-9.413,0-17.039-10.034-17.039-22.466
	C212.053,493.631,219.679,483.602,229.092,483.602z"/>
</svg>
